<svg aria-hidden="true" style="position: absolute; width: 0; height: 0; overflow: hidden;" version="1.1" xmlns="http://www.w3.org/2000/svg" xmlns:xlink="http://www.w3.org/1999/xlink">
<defs>
<symbol id="icon-uniE900" viewBox="0 0 23 32">
<path d="M19.429 0h-16c-1.89 0-3.429 1.346-3.429 3.001v25.998c0 1.657 1.538 3.001 3.429 3.001h16c1.89 0 3.429-1.346 3.429-3.001v-25.998c0-1.655-1.538-3.001-3.429-3.001zM3.429 2h16c0.631 0 1.143 0.448 1.143 1.001v20.999h-18.286v-21.001c0-0.549 0.512-0.999 1.143-0.999zM19.429 30h-16c-0.631 0-1.143-0.448-1.143-1.001v-2.999h18.286v3.001c0 0.549-0.512 0.999-1.143 0.999z"></path>
</symbol>
<symbol id="icon-envelope1" viewBox="0 0 45 32">
<path d="M40.602 0h-36.4c-2.317 0-4.202 1.792-4.202 4v24c0 2.208 1.885 4 4.202 4h36.4c2.31 0 4.198-1.792 4.198-4v-24c0-2.208-1.885-4-4.202-4zM40.602 2.666c0.189 0 0.368 0.038 0.534 0.106l-18.736 15.466-18.736-15.466c0.158-0.066 0.342-0.104 0.534-0.106h36.401zM40.602 29.334h-36.4c-0.010 0-0.021 0-0.032 0-0.744 0-1.35-0.593-1.369-1.333l-0-0.002v-22.413l18.682 15.421c0.247 0.206 0.568 0.331 0.918 0.331s0.671-0.125 0.921-0.333l-0.002 0.002 18.682-15.421v22.413c0 0.736-0.627 1.334-1.402 1.334z"></path>
</symbol>
<symbol id="icon-iconsend1" viewBox="0 0 32 32">
<path d="M32 0l-32 18 10.227 3.787 15.773-14.787-11.997 16.187 0.009 0.003-0.012-0.003v8.813l5.735-6.691 7.267 2.691 4.999-28z"></path>
</symbol>
</defs>
</svg>
